<svg width="250" height="250" viewBox="0 0 250 250" fill="none" xmlns="http://www.w3.org/2000/svg">
<rect width="250" height="250" fill="#DEDEDE"/>
<path d="M114.844 112.969C117.383 112.969 119.531 115.117 119.531 117.656C119.531 120.293 117.383 122.344 114.844 122.344C112.207 122.344 110.156 120.293 110.156 117.656C110.156 115.117 112.207 112.969 114.844 112.969ZM143.652 104.375C147.168 104.375 149.902 107.207 149.902 110.625V141.875C149.902 145.391 147.07 148.125 143.652 148.125H106.152C102.734 148.125 99.9023 145.391 99.9023 141.875V110.625C99.9023 107.207 102.734 104.375 106.152 104.375H143.652ZM145.215 141.289V110.625C145.215 109.844 144.531 109.062 143.652 109.062H106.152C105.371 109.062 104.59 109.844 104.59 110.625L104.688 141.875L112.012 132.695C112.402 132.305 112.891 132.012 113.477 132.012C114.062 132.012 114.551 132.305 114.941 132.695L118.555 137.188L128.906 123.125C129.297 122.637 129.785 122.344 130.469 122.344C131.055 122.344 131.543 122.637 131.836 123.125L145.215 141.289Z" fill="black" fill-opacity="0.36"/>
</svg>
